<?xml version="1.0" standalone="no"?>
<!DOCTYPE svg PUBLIC "-//W3C//DTD SVG 20010904//EN"
 "http://www.w3.org/TR/2001/REC-SVG-20010904/DTD/svg10.dtd">
<svg version="1.0" xmlns="http://www.w3.org/2000/svg"
 width="439.000000pt" height="351.000000pt" viewBox="0 0 439.000000 351.000000"
 preserveAspectRatio="xMidYMid meet">

<g transform="translate(0.000000,351.000000) scale(0.100000,-0.100000)"
fill="#000000" stroke="none">
<path d="M2334 2939 c3 -34 6 -75 6 -90 0 -24 4 -29 25 -29 23 0 25 4 25 44 0
24 3 64 6 90 l7 46 -38 0 -38 0 7 -61z"/>
<path d="M1970 2823 c0 -10 25 -44 56 -77 53 -56 55 -58 74 -41 19 17 19 18
-11 55 -55 68 -119 102 -119 63z"/>
<path d="M2662 2783 c-44 -49 -49 -60 -37 -72 11 -12 18 -10 43 8 41 29 94 91
89 104 -2 7 -13 13 -24 15 -14 2 -35 -14 -71 -55z"/>
<path d="M2267 2726 c-85 -32 -153 -99 -183 -183 -16 -47 -18 -139 -3 -182 6
-18 9 -34 6 -37 -3 -3 -25 5 -49 17 -58 30 -111 28 -173 -4 -56 -31 -93 -34
-135 -12 -18 9 -31 11 -35 5 -9 -15 4 -31 41 -46 50 -21 83 -17 139 16 63 38
92 37 163 -1 67 -36 108 -34 177 6 54 32 77 31 145 -5 69 -38 94 -37 165 0 31
17 68 30 81 30 13 0 50 -13 81 -30 70 -38 96 -38 168 1 59 31 72 32 149 13 40
-10 31 15 -15 39 -41 21 -83 16 -148 -19 -58 -31 -82 -30 -141 3 l-47 27 0 75
c1 124 -54 215 -159 267 -67 33 -169 42 -227 20z"/>
<path d="M826 2679 c-36 -28 -76 -93 -76 -122 0 -26 43 -70 172 -175 129 -104
213 -157 330 -207 121 -52 235 -121 267 -161 16 -20 27 -25 56 -22 l37 3 -84
67 c-49 40 -106 98 -138 140 -29 40 -78 105 -107 144 -65 87 -380 354 -418
354 -7 0 -24 -10 -39 -21z"/>
<path d="M3673 2585 c-179 -145 -226 -193 -328 -335 -64 -89 -102 -131 -170
-185 l-87 -70 38 -3 c26 -2 40 1 46 12 20 35 129 103 271 167 92 42 177 89
221 122 125 95 256 207 256 220 0 12 -83 164 -98 179 -5 5 -72 -44 -149 -107z"/>
<path d="M1810 2451 l0 -31 96 0 c94 0 95 0 88 23 -3 12 -7 23 -8 23 0 1 -40
4 -88 8 l-88 7 0 -30z"/>
<path d="M2730 2450 l0 -30 90 0 90 0 0 30 0 30 -90 0 -90 0 0 -30z"/>
<path d="M1930 2190 c-14 -4 -49 -20 -79 -35 -54 -29 -54 -29 -100 -12 -25 9
-49 13 -54 8 -12 -12 28 -42 70 -52 33 -8 46 -5 97 21 71 36 114 38 169 6 68
-38 98 -39 161 -6 68 36 108 38 161 5 56 -34 127 -34 177 0 49 33 95 32 165
-5 31 -16 64 -30 73 -30 9 0 43 14 75 31 59 31 100 35 163 14 34 -11 28 21 -8
40 -44 23 -86 18 -162 -16 l-68 -32 -68 32 c-85 39 -118 39 -189 1 -31 -16
-61 -30 -68 -30 -7 0 -39 14 -70 30 -31 17 -70 30 -87 30 -16 0 -60 -13 -98
-30 -38 -16 -74 -30 -80 -30 -6 0 -31 11 -55 25 -56 33 -94 44 -125 35z"/>
<path d="M837 1883 c-4 -3 -7 -111 -7 -239 l0 -232 23 -6 c46 -12 47 -10 47
73 0 139 16 145 62 25 32 -85 49 -104 94 -104 22 0 17 20 -40 159 l-54 131 44
91 c24 50 44 95 44 100 0 6 -12 9 -27 7 -23 -2 -36 -17 -73 -83 l-45 -80 -3
83 -3 82 -28 0 c-15 0 -31 -3 -34 -7z"/>
<path d="M1120 1645 l0 -245 105 0 105 0 0 35 0 35 -70 0 -70 0 0 70 0 70 56
0 56 0 -7 27 c-9 36 -6 34 -60 40 l-45 6 0 68 0 69 70 0 70 0 0 35 0 35 -105
0 -105 0 0 -245z"/>
<path d="M1360 1645 l0 -245 35 0 35 0 0 152 c0 89 4 148 9 143 5 -6 28 -70
52 -144 46 -138 55 -151 110 -151 18 0 19 9 19 245 l0 245 -22 0 c-44 0 -47
-10 -54 -164 -4 -81 -10 -142 -14 -134 -4 7 -25 73 -46 147 -40 139 -48 151
-105 151 -18 0 -19 -9 -19 -245z"/>
<path d="M1660 1645 l0 -245 35 0 35 0 0 146 c0 80 4 143 9 140 6 -4 95 -257
96 -273 0 0 17 -4 38 -8 l37 -7 0 246 0 246 -35 0 -35 0 0 -152 c0 -91 -4
-148 -9 -143 -5 6 -28 74 -52 153 l-42 142 -39 0 -38 0 0 -245z"/>
<path d="M1964 1879 c-4 -7 -9 -117 -12 -245 l-5 -234 42 0 41 0 0 245 0 245
-29 0 c-17 0 -33 -5 -37 -11z"/>
<path d="M2117 1864 c-30 -30 -42 -78 -32 -124 4 -18 38 -67 81 -117 63 -72
75 -91 72 -116 -6 -58 -77 -64 -96 -7 -8 23 -17 30 -36 30 -34 0 -39 -13 -23
-52 46 -108 176 -110 216 -4 22 57 3 102 -79 191 -57 61 -70 81 -70 108 0 18
5 38 12 45 17 17 58 15 64 -3 14 -36 74 -41 74 -6 0 9 -8 26 -18 37 -41 52
-123 60 -165 18z"/>
<path d="M2350 1645 l0 -245 35 0 35 0 0 245 0 245 -35 0 -35 0 0 -245z"/>
<path d="M2508 1863 c-35 -37 -44 -89 -24 -136 8 -20 44 -68 80 -106 54 -58
66 -76 66 -104 0 -61 -55 -80 -87 -29 -21 33 -33 42 -55 42 -39 0 -5 -95 43
-120 30 -17 83 -17 113 -1 38 21 59 74 51 127 -5 36 -18 57 -64 107 -74 80
-91 106 -91 137 0 53 51 67 89 24 26 -30 55 -28 59 4 2 14 -7 33 -27 52 -25
25 -37 30 -78 30 -41 0 -54 -5 -75 -27z"/>
<path d="M2830 1645 l0 -245 100 0 c55 0 100 3 100 8 -1 40 -13 50 -71 57
l-59 7 0 209 0 209 -35 0 -35 0 0 -245z"/>
<path d="M3145 1880 c-6 -10 -70 -381 -77 -445 -3 -27 0 -30 27 -30 28 0 31 3
40 50 11 50 11 50 53 53 45 3 40 9 57 -72 5 -25 51 -45 66 -29 4 4 -11 115
-34 246 l-41 237 -42 0 c-24 0 -46 -5 -49 -10z m64 -193 c17 -100 16 -107 -20
-107 l-32 0 6 60 c14 127 29 143 46 47z"/>
<path d="M3360 1645 l0 -245 35 0 35 0 0 76 c0 72 11 114 29 114 5 0 23 -38
40 -85 36 -94 62 -120 99 -97 9 7 1 38 -38 133 -27 68 -50 134 -50 147 0 12
18 58 40 102 22 44 40 84 40 90 0 12 -40 13 -56 2 -6 -4 -28 -40 -49 -79 -20
-40 -41 -73 -46 -73 -5 0 -9 36 -9 80 l0 80 -35 0 -35 0 0 -245z"/>
<path d="M3660 1645 l0 -245 105 0 105 0 0 35 0 35 -70 0 -70 0 0 69 0 70 48
3 c45 3 47 4 47 33 0 29 -2 30 -47 33 l-48 3 0 70 0 69 70 0 70 0 0 35 0 35
-105 0 -105 0 0 -245z"/>
<path d="M1436 1273 c-8 -49 -7 -121 1 -151 8 -34 23 -8 23 43 0 45 14 38 27
-14 12 -48 29 -49 37 -2 8 54 26 63 26 12 0 -22 5 -43 10 -46 6 -4 10 28 10
89 0 78 -3 96 -15 96 -8 0 -18 -16 -24 -37 -5 -21 -12 -51 -16 -68 -8 -30 -8
-29 -22 20 -29 104 -46 121 -57 58z"/>
<path d="M1750 1229 c0 -96 8 -138 21 -117 5 7 9 26 9 41 0 37 20 31 34 -10
19 -54 23 -46 24 46 0 98 -4 107 -56 117 l-32 7 0 -84z m63 29 c13 -20 2 -48
-18 -48 -11 0 -15 10 -15 36 0 37 14 42 33 12z"/>
<path d="M1887 1296 c-9 -24 -8 -156 2 -180 7 -18 8 -18 14 5 9 32 7 149 -2
173 -7 18 -8 18 -14 2z"/>
<path d="M2261 1296 c-8 -9 -10 -28 -5 -50 3 -21 1 -48 -6 -65 -19 -46 0 -71
55 -71 43 0 65 12 45 25 -5 3 -7 20 -4 38 5 30 4 31 -10 13 -16 -19 -36 -14
-36 9 0 8 7 30 17 49 13 29 14 38 3 51 -16 19 -44 19 -59 1z m43 -14 c2 -4 1
-14 -4 -22 -7 -11 -12 -12 -21 -3 -6 6 -8 16 -5 22 8 13 23 14 30 3z m-6 -135
c2 -10 -3 -17 -12 -17 -10 0 -16 9 -16 21 0 24 23 21 28 -4z"/>
<path d="M2430 1290 c-23 -23 -19 -39 22 -91 15 -20 28 -44 28 -53 0 -19 -31
-21 -48 -4 -9 9 -12 8 -12 -5 0 -10 12 -22 26 -27 58 -22 74 43 24 100 -16 19
-29 43 -30 54 0 15 5 17 30 13 34 -7 40 7 11 23 -26 13 -28 13 -51 -10z"/>
<path d="M2550 1300 c-12 -8 -12 -10 3 -16 14 -5 17 -20 17 -83 0 -81 12 -121
23 -79 4 12 7 53 7 89 0 54 3 68 17 73 15 6 15 8 3 16 -8 6 -24 10 -35 10 -11
0 -27 -4 -35 -10z"/>
<path d="M2680 1290 c-15 -15 -20 -33 -20 -74 0 -97 31 -139 73 -98 28 29 30
141 2 172 -23 25 -30 25 -55 0z m45 -85 c0 -58 -3 -70 -17 -73 -16 -3 -18 6
-18 73 0 67 2 76 18 73 14 -3 17 -15 17 -73z"/>
<path d="M2790 1234 c0 -44 3 -90 7 -104 7 -24 8 -23 13 10 6 44 31 46 42 3 5
-18 12 -34 17 -37 12 -8 8 171 -4 183 -6 6 -25 14 -43 17 l-32 7 0 -79z m60
11 c0 -24 -5 -35 -15 -35 -10 0 -15 11 -15 35 0 24 5 35 15 35 10 0 15 -11 15
-35z"/>
<path d="M3080 1290 c-15 -15 -20 -33 -20 -77 0 -86 29 -129 69 -104 19 12 21
102 4 108 -9 3 -13 -9 -13 -42 0 -39 -3 -46 -17 -43 -26 5 -27 141 -1 146 9 2
19 -5 23 -18 7 -22 25 -18 25 5 0 15 -27 45 -41 45 -5 0 -18 -9 -29 -20z"/>
<path d="M3190 1205 l0 -105 28 0 c15 0 34 4 42 10 15 9 16 9 -35 25 -22 7
-18 40 7 57 l22 15 -22 12 c-24 13 -30 49 -9 55 49 15 52 17 37 26 -8 6 -27
10 -42 10 l-28 0 0 -105z"/>
<path d="M1645 1288 c-10 -31 -33 -173 -28 -178 3 -3 12 5 20 18 19 27 40 28
48 2 6 -19 25 -29 25 -12 0 11 -20 134 -25 160 -6 24 -33 30 -40 10z m21 -106
c-11 -10 -15 4 -8 28 l7 25 3 -23 c2 -13 1 -26 -2 -30z"/>
<path d="M1946 1285 c-8 -22 6 -175 15 -169 5 3 9 28 9 57 0 58 9 54 34 -16
10 -26 23 -46 30 -44 13 4 21 128 10 167 l-7 25 -7 -25 c-5 -14 -8 -41 -9 -59
-1 -42 -12 -33 -35 32 -18 49 -30 58 -40 32z"/>
<path d="M2115 1278 c-9 -41 -25 -141 -25 -155 0 -20 17 -15 23 7 7 28 36 25
47 -6 19 -49 28 -14 14 58 -20 110 -23 118 -39 118 -8 0 -17 -10 -20 -22z m35
-68 c0 -33 -17 -49 -26 -26 -8 22 4 68 16 61 6 -3 10 -19 10 -35z"/>
<path d="M2956 1283 c-12 -40 -27 -153 -23 -170 3 -15 6 -13 15 10 6 15 18 27
27 27 9 0 21 -12 27 -27 l12 -28 4 24 c3 22 -10 116 -24 164 -3 9 -11 17 -19
17 -8 0 -16 -8 -19 -17z m34 -80 c0 -12 -5 -25 -10 -28 -15 -9 -23 21 -15 52
5 21 8 24 16 12 5 -7 9 -24 9 -36z"/>
<path d="M1764 976 c-17 -17 -113 -95 -214 -174 l-183 -143 -27 26 c-31 30
-40 31 -40 6 0 -21 71 -120 96 -134 31 -17 30 0 -4 64 -1 3 104 89 235 189
131 101 242 187 248 192 5 4 -11 7 -35 7 -36 -2 -51 -8 -76 -33z"/>
<path d="M2827 987 c15 -13 126 -99 246 -191 120 -93 216 -171 215 -175 -34
-65 -35 -81 -4 -64 24 13 96 115 96 135 0 24 -9 23 -40 -7 l-27 -26 -207 162
c-114 88 -210 167 -213 175 -3 9 -21 14 -50 14 l-45 0 29 -23z"/>
</g>
</svg>
